:SAMPLES-PER-SECOND 30
:FULLY-SPECIFIED
:DEGREES
233
root  6.965844462 37.10177865 -0.5341489015 -13.20799255 -56.94799805 1.046005249
lowerback  8.114319801 -0.3920150101 -6.873129845
upperback  4.764460087 -1.076099992 0.3902209997
thorax  0.5444149971 -0.7267079949 4.346300125
lowerneck  -1.826670051 8.459409714 -0.7651950121
upperneck  22.28680038 10.68220043 3.459079981
head  6.863339901 5.199560165 1.879999995
lclavicle  0 -9.442270133e-015 7.951389973e-016
lhumerus  8.974840164 1.421139956 72.23059845
lradius  1.986213528e-031 -2.919554736e-031 124.2279968
lwrist  -1.412450015e-030 -1.765562519e-031 12.11909962
lhand  -1.496451383e-031 -27.76390076 20.11240005
lfingers  90 7.125020027 -90
lthumb  89.89689403 5.08795885 91.16245106
rclavicle  0 -9.442270133e-015 7.951389973e-016
rhumerus  0.8960390091 24.21290016 -84.65380096
rradius  -1.761931875e-031 3.060137269e-031 119.9319992
rwrist  7.062250077e-031 2.206953149e-031 -36.10919952
rhand  -7.920061211e-032 -33.2840004 9.303460121
rfingers  -90 -7.125020027 -90
rthumb  -92.93752616 -24.25625642 -97.11982154
rfemur  -12.59300041 14.40180016 1.921329975
rtibia  -0 0 67.94129944
rfoot  -4.443801118e-032 -6.649700165 3.449359894
rtoes  5.373923086 19.29304026 -105.8922705
lfemur  -17.24239922 9.992739677 -0.04008540139
ltibia  -0 0 81.95490265
lfoot  4.422334297e-032 -3.537879944 -4.567639828
ltoes  -4.250644065 -19.5611806 -102.515957
234
root  6.860577591 37.05711064 -0.3837977807 -16.20599365 -56.41400146 3.128005981
lowerback  8.333629608 -0.1968220025 -8.240189552
upperback  4.900829792 -0.9369530082 -0.2855220139
thorax  0.5720120072 -0.6854569912 4.40128994
lowerneck  -1.911859989 8.513540268 -1.248520017
upperneck  22.17180061 10.64070034 4.343860149
head  6.756939888 5.218840122 2.227370024
lclavicle  0 -9.442270133e-015 7.951389973e-016
lhumerus  10.19349957 0.4847579896 72.54740143
lradius  1.910507517e-031 -2.969647297e-031 122.7549973
lwrist  -7.062250077e-031 -0 12.43080044
lhand  -1.496451383e-031 -27.76390076 20.11240005
lfingers  90 7.125020027 -90
lthumb  89.89689403 5.08795885 91.16245106
rclavicle  0 -9.442270133e-015 7.951389973e-016
rhumerus  0.7861139774 23.62479973 -84.59380341
rradius  -1.742241185e-031 3.071390514e-031 119.564003
rwrist  0 4.413906298e-031 -35.94639969
rhand  -7.920061211e-032 -33.2840004 9.303460121
rfingers  -90 -7.125020027 -90
rthumb  -92.93752616 -24.25625642 -97.11982154
rfemur  -11.8057003 14.94209957 0.5685660243
rtibia  -0 0 68.76560211
rfoot  -4.433128795e-032 -5.337580204 4.231100082
rtoes  5.373923086 19.29304026 -105.8922705
lfemur  -16.25320053 9.368590355 -0.6765779853
ltibia  -0 0 80.91570282
lfoot  5.540588185e-032 -5.24571991 -1.511839986
ltoes  -4.250644065 -19.5611806 -102.515957
235
root  6.744133206 36.99333311 -0.2471533347 -17.54400635 -56.00099945 3.645996094
lowerback  8.244139671 -0.02649790049 -8.857069969
upperback  4.893740177 -0.7500020266 -0.7011079788
thorax  0.5968130231 -0.601360023 4.297440052
lowerneck  -2.167900085 8.433750153 -1.752099991
upperneck  22.17880058 10.41749954 5.253779888
head  6.722630024 5.150640011 2.589839935
lclavicle  0 -9.442270133e-015 7.951389973e-016
lhumerus  11.46329975 -0.6362400055 72.95269775
lradius  1.833855089e-031 -3.017585053e-031 121.288002
lwrist  -1.412450015e-030 -3.531125038e-031 12.77439976
lhand  -1.496451383e-031 -27.76390076 20.11240005
lfingers  90 7.125020027 -90
lthumb  89.89689403 5.08795885 91.16245106
rclavicle  0 -9.442270133e-015 7.951389973e-016
rhumerus  0.7768449783 22.87509918 -84.41429901
rradius  -1.724199425e-031 3.081554864e-031 119.2279968
rwrist  7.062250077e-031 5.296687558e-031 -35.64250183
rhand  -7.920061211e-032 -33.2840004 9.303460121
rfingers  -90 -7.125020027 -90
rthumb  -92.93752616 -24.25625642 -97.11982154
rfemur  -11.17800045 15.56340027 0.3325409889
rtibia  -0 0 69.38089752
rfoot  -4.428829091e-032 -4.704790115 5.054450035
rtoes  5.373923086 19.29304026 -105.8922705
lfemur  -15.66779995 8.845379829 -0.3160429895
ltibia  -0 0 79.66410065
lfoot  4.444170828e-032 -6.690460205 0.3149639964
ltoes  -4.250644065 -19.5611806 -102.515957
236
root  6.62744477 36.89822099 -0.12008556 -17.04400635 -55.81800079 2.386993408
lowerback  7.91590023 0.05317780003 -8.550609589
upperback  4.744949818 -0.5911229849 -0.7771959901
thorax  0.5916129947 -0.5066900253 4.032539845
lowerneck  -2.860769987 8.312999725 -2.184410095
upperneck  22.56809998 10.15149975 6.079609871
head  6.901860237 5.060389996 2.953130007
lclavicle  0 -9.442270133e-015 7.951389973e-016
lhumerus  12.81120014 -1.687540054 73.38359833
lradius  1.755893237e-031 -3.063606205e-031 119.8190002
lwrist  0 -0 13.14120007
lhand  -1.496451383e-031 -27.76390076 20.11240005
lfingers  90 7.125020027 -90
lthumb  89.89689403 5.08795885 91.16245106
rclavicle  0 -9.442270133e-015 7.951389973e-016
rhumerus  0.8263009787 22.35560036 -84.12110138
rradius  -1.706854147e-031 3.09119604e-031 118.9059982
rwrist  0 -8.827812596e-032 -35.25389862
rhand  -7.920061211e-032 -33.2840004 9.303460121
rfingers  -90 -7.125020027 -90
rthumb  -92.93752616 -24.25625642 -97.11982154
rfemur  -10.76319981 16.2343998 1.376139998
rtibia  -0 0 69.81289673
rfoot  -4.430419957e-032 -4.948480129 5.757549763
rtoes  5.373923086 19.29304026 -105.8922705
lfemur  -15.54570007 8.318349838 1.190050006
ltibia  -0 0 78.1493988
lfoot  5.568733693e-032 -7.786950111 1.198830009
ltoes  -4.250644065 -19.5611806 -102.515957
